<svg xmlns="http://www.w3.org/2000/svg" width="24.743" height="17.01" viewBox="0 0 24.743 17.01">
    <path id="prefix__Path_481" d="M757.511 5843.611c-.671-1.194-1.4-1.414-2.883-1.5-1.481-.1-5.206-.142-8.434-.142s-6.961.041-8.441.14-2.21.3-2.887 1.5-1.047 3.246-1.047 6.862v.012c0 3.6.356 5.67 1.047 6.85s1.406 1.409 2.886 1.511c1.481.086 5.208.137 8.442.137s6.953-.051 8.435-.136c1.483-.1 2.212-.317 2.883-1.512.7-1.179 1.05-3.249 1.05-6.849v-.012c0-3.615-.353-5.672-1.051-6.861zm-14.411 11.506v-9.279l7.732 4.64z" data-name="Path 481" transform="translate(-733.819 -5841.973)" style="fill:#fff"/>
</svg>
