<svg xmlns="http://www.w3.org/2000/svg" width="15" height="15"><defs><clipPath id="b"><path d="M3 3.652h8.984v7.7H3Zm0 0"/></clipPath><clipPath id="c"><path d="M7 5.5h4.984V8H7Zm0 0"/></clipPath><linearGradient id="a" x1="22" x2="22" y1="0" y2="44" gradientTransform="matrix(.3409 0 0 .31818 0 .5)" gradientUnits="userSpaceOnUse"><stop offset="0" style="stop-color:#5fa0ff;stop-opacity:1"/><stop offset="1" style="stop-color:#035ada;stop-opacity:1"/></linearGradient></defs><path d="M15 7.5c0-3.867-3.36-7-7.5-7S0 3.633 0 7.5s3.36 7 7.5 7 7.5-3.133 7.5-7m0 0" style="stroke:none;fill-rule:nonzero;fill:url(#a)"/><g clip-path="url(#b)"><path d="M5.207 11.348q.258-.005.516-.004c-.004-.004-.004-.012-.004-.016l.004.016q.058-.001.117.004h2.82q.352-.001.703.004.703.001 1.407-.004h.011c.653-.004 1.176-.485 1.172-1.075V9.22c0-.024.004-.055-.008-.055-.261.121-.406.223-.55.32-.293.196-.582.395-.91.524a6.8 6.8 0 0 1-3.59.144c-.204-.007-.254-.004-.305-.007h-.027c-.118.003-.286.007-.493.12a4.2 4.2 0 0 1-1.46.102q0 .007.003.008c-.004 0-.004-.004-.004-.004-.007-.004-.011-.012-.015-.016-.02-.011-.035-.023-.004-.046.008-.004.015-.012.027-.016.309-.184.551-.348.707-.586.215-.238.117-.328-.074-.504l-.008-.008c-.926-.851-1.199-1.758-1.101-2.976.117-.668.457-1.242.945-1.742.305-.301.656-.555 1.039-.754.004-.004.012-.004.016-.008.02-.008.039-.016.043-.04.003-.019-.032-.023-.043-.023-.22 0-.438-.004-.653-.004-.43-.003-.855-.007-1.293.004-.629.016-1.199.403-1.187 1.098v5.523c0 .567.48 1.047 1.113 1.07.36.012.723.009 1.086.005m-.574-.938.004.004q.054.041.101.082-.047-.041-.101-.082c0-.004-.004-.004-.004-.004m1.004.848-.035-.024h-.004.004c.011.012.023.016.035.024m0 0" style="stroke:none;fill-rule:evenodd;fill:#fff;fill-opacity:1"/></g><path d="M6.027 7.398c.293 0 .57-.003.848 0 .152 0 .238.059.254.168.016.141-.074.235-.242.235q-.476.005-.946.004c-.093 0-.183.004-.273-.004-.113-.004-.227-.024-.281-.13-.055-.109-.016-.202.058-.288.301-.348.606-.692.907-1.04.02-.019.035-.042.054-.062-.02-.027-.047-.015-.07-.015-.211-.004-.426 0-.637-.004a1 1 0 0 1-.144-.012c-.11-.023-.18-.125-.153-.223l1.34-.156c.063 0 .121.008.184.02.133.043.187.152.136.27-.046.1-.12.187-.195.273-.258.293-.512.586-.77.878Zm0 0" style="stroke:none;fill-rule:nonzero;fill:#fff;fill-opacity:1"/><g clip-path="url(#c)"><path d="M8.293 6.469c.047-.055.094-.106.176-.121.152-.028.297.062.3.203q.006.532 0 1.058c0 .094-.066.172-.164.2-.304-.106-.32-.114-.367-.079a.66.66 0 0 1-.593.09c-.348-.101-.493-.347-.532-.644-.039-.324.078-.598.399-.77.265-.14.535-.129.781.063m-.691.644c.199.344.39.367.53.27q.035-.025.063-.055a.41.41 0 0 0 0-.492c-.445-.121-.597.027-.593.277m2.043.012c-.016-.453.316-.793.785-.805.496-.015.86.285.875.727.015.445-.285.762-.754.805-.508.046-.914-.286-.906-.727m.492-.043c.191.375.39.398.531.3.023-.015.039-.034.059-.05a.405.405 0 0 0 0-.496c-.442-.121-.59.023-.59.246m-.664-.309c0 .274.004.547 0 .82.004.126-.106.227-.246.231q-.036.001-.07-.004l-.173-1.633c0-.082-.004-.164 0-.246 0-.136.098-.222.243-.222.148-.004.246.086.246.226.004.274 0 .551 0 .828m0 0" style="stroke:none;fill-rule:nonzero;fill:#fff;fill-opacity:1"/></g><path d="M7.602 7.113c-.004-.25.148-.398.359-.386.094 0 .18.043.234.109.11.133.11.355 0 .488a.35.35 0 0 1-.258.117.35.35 0 0 1-.257-.117m2.457-.242c0-.219.148-.367.36-.355.089 0 .175.043.23.109a.405.405 0 0 1 0 .496.346.346 0 0 1-.454.047m-.136-.297" style="stroke:none;fill-rule:nonzero;fill:#0068ff;fill-opacity:1"/></svg>