<svg xmlns="http://www.w3.org/2000/svg" width="62" height="62" viewBox="0 0 62 62">
    <defs>
        <style>
            .cls-1{fill:none;stroke:#0063d1;stroke-miterlimit:10;stroke-width:2px}
        </style>
    </defs>
    <g id="Group_1960" data-name="Group 1960" transform="translate(-1705.164 9548.324)">
        <path id="Path_786" d="M1736.164-9529.137a5.068 5.068 0 0 0-5.062 5.063 5.068 5.068 0 0 0 5.062 5.063 5.069 5.069 0 0 0 5.063-5.062 5.068 5.068 0 0 0-5.063-5.064z" class="cls-1" data-name="Path 786"/>
        <path id="Path_787" d="M1757.374-9538.541a30 30 0 0 0-42.426.007 30 30 0 0 0 .006 42.426 30 30 0 0 0 42.427-.006 30 30 0 0 0 8.783-21.217 30 30 0 0 0-8.79-21.21zm-10.388 21.765l-8.927 16.341-.013.021a2.149 2.149 0 0 1-1.882 1.091 2.15 2.15 0 0 1-1.882-1.091l-.012-.021-8.927-16.341a12.534 12.534 0 0 1 .163-12.384 12.218 12.218 0 0 1 10.381-6.161q.278-.007.554 0a12.218 12.218 0 0 1 10.381 6.161 12.536 12.536 0 0 1 .164 12.384z" class="cls-1" data-name="Path 787"/>
    </g>
</svg>
