<svg xmlns="http://www.w3.org/2000/svg" width="62" height="62" viewBox="0 0 62 62">
    <path id="Path_788" fill="none" stroke="#0063d1" stroke-miterlimit="10" stroke-width="2px" d="M2115.374-9538.541a30 30 0 0 0-42.426.007 30 30 0 0 0 .006 42.426 30 30 0 0 0 42.427-.006 30 30 0 0 0 8.783-21.217 30 30 0 0 0-8.79-21.21zm-5.78 33l-1.52 1.51a8 8 0 0 1-7.55 2.16 26.614 26.614 0 0 1-7.72-3.46 35.641 35.641 0 0 1-6.09-4.91 35.929 35.929 0 0 1-4.55-5.52 28.007 28.007 0 0 1-3.42-6.92 8 8 0 0 1 2-8.17l1.78-1.78a1.27 1.27 0 0 1 1.8 0l5.62 5.62a1.27 1.27 0 0 1 0 1.8l-3.3 3.3a2.69 2.69 0 0 0-.28 3.5 38.642 38.642 0 0 0 3.95 4.61 38.464 38.464 0 0 0 5.2 4.37 2.71 2.71 0 0 0 3.46-.3l3.19-3.239a1.27 1.27 0 0 1 1.8 0l5.63 5.64a1.27 1.27 0 0 1 0 1.8z" data-name="Path 788" transform="translate(-2063.164 9548.324)"/>
</svg>
